<svg xmlns="http://www.w3.org/2000/svg" xmlns:xlink="http://www.w3.org/1999/xlink" viewBox="178 -526 620 458"><defs><clipPath id="clip0"><path d="M 294 -294 L 294 -526 L 786 -526 L 786 -294 Z"/></clipPath><clipPath id="clip1"><path d="M 294 -294 L 294 -526 L 786 -526 L 786 -294 Z"/></clipPath><clipPath id="clip2"><path d="M 280 -280 L 280 -540 L 800 -540 L 800 -280 Z"/></clipPath><clipPath id="clip3"><path d="M 294 -294 L 294 -526 L 786 -526 L 786 -294 Z"/></clipPath><clipPath id="clip4"><path d="M 280 -280 L 280 -540 L 800 -540 L 800 -280 Z"/></clipPath><clipPath id="clip5"><path d="M 387.27272727272725 -311.896 L 381.02272727272725 -321.896 L 393.52272727272725 -321.896 Z"/></clipPath><clipPath id="clip6"><path d="M 474.5454545454545 -328.79200000000003 L 468.2954545454545 -338.79200000000003 L 480.7954545454545 -338.79200000000003 Z"/></clipPath><clipPath id="clip7"><path d="M 561.8181818181818 -345.688 L 555.5681818181818 -355.688 L 568.0681818181818 -355.688 Z"/></clipPath><clipPath id="clip8"><path d="M 649.090909090909 -362.584 L 642.840909090909 -372.584 L 655.340909090909 -372.584 Z"/></clipPath><clipPath id="clip9"><path d="M 736.3636363636364 -379.48 L 730.1136363636364 -389.48 L 742.6136363636364 -389.48 Z"/></clipPath><clipPath id="clip10"><path d="M 294 -294 L 294 -526 L 786 -526 L 786 -294 Z"/></clipPath><clipPath id="clip11"><path d="M 280 -280 L 280 -540 L 800 -540 L 800 -280 Z"/></clipPath><clipPath id="clip12"><path d="M 380.12987012987014 -328.21632 L 387.27272727272725 -335.35917714285716 L 394.4155844155844 -328.21632 L 387.27272727272725 -321.0734628571429 Z"/></clipPath><clipPath id="clip13"><path d="M 467.4025974025974 -333.84832 L 474.5454545454545 -340.99117714285717 L 481.68831168831167 -333.84832 L 474.5454545454545 -326.70546285714283 Z"/></clipPath><clipPath id="clip14"><path d="M 554.6753246753246 -339.48032 L 561.8181818181818 -346.6231771428571 L 568.961038961039 -339.48032 L 561.8181818181818 -332.33746285714284 Z"/></clipPath><clipPath id="clip15"><path d="M 641.9480519480519 -345.11232 L 649.090909090909 -352.2551771428571 L 656.2337662337662 -345.11232 L 649.090909090909 -337.96946285714284 Z"/></clipPath><clipPath id="clip16"><path d="M 729.2207792207791 -350.74432 L 736.3636363636364 -357.8871771428571 L 743.5064935064936 -350.74432 L 736.3636363636364 -343.60146285714285 Z"/></clipPath><clipPath id="clip17"><path d="M 290 -74 L 290 -200 L 687.072 -200 L 687.072 -74 Z"/></clipPath><clipPath id="clip18"><path d="M 308.0 -132.33333333333334 L 301.75 -142.33333333333334 L 314.25 -142.33333333333334 Z"/></clipPath><clipPath id="clip19"><path d="M 300.85714285714283 -117.33333333333334 L 308.0 -124.47619047619048 L 315.14285714285717 -117.33333333333334 L 308.0 -110.1904761904762 Z"/></clipPath></defs><g style="stroke-linejoin:miter;font-size:8;font-family:Helvetica;fill:none;stroke-linecap:butt;stroke:#000;font-stretch:normal;stroke-dasharray:none;font-weight:400;font-style:normal;stroke-width:.5"><path d="M 300 -300 L 780 -300"/><path d="M 300 -300 L 780 -300"/><path d="M 300.0 -300 L 300.0 -288"/><text style="font-size:12;font-style:italic;stroke:none;fill:#000" x="300" y="-288" transform="rotate(90,300,-288)">0</text><path d="M 343.6363636363636 -300 L 343.6363636363636 -288"/><text style="font-size:12;font-style:italic;stroke:none;fill:#000" x="343.636" y="-288" transform="rotate(90,343.636,-288)">200</text><path d="M 387.27272727272725 -300 L 387.27272727272725 -288"/><text style="font-size:12;font-style:italic;stroke:none;fill:#000" x="387.273" y="-288" transform="rotate(90,387.273,-288)">400</text><path d="M 430.9090909090909 -300 L 430.9090909090909 -288"/><text style="font-size:12;font-style:italic;stroke:none;fill:#000" x="430.909" y="-288" transform="rotate(90,430.909,-288)">600</text><path d="M 474.5454545454545 -300 L 474.5454545454545 -288"/><text style="font-size:12;font-style:italic;stroke:none;fill:#000" x="474.545" y="-288" transform="rotate(90,474.545,-288)">800</text><path d="M 518.1818181818182 -300 L 518.1818181818182 -288"/><text style="font-size:12;font-style:italic;stroke:none;fill:#000" x="518.182" y="-288" transform="rotate(90,518.182,-288)">1000</text><path d="M 561.8181818181818 -300 L 561.8181818181818 -288"/><text style="font-size:12;font-style:italic;stroke:none;fill:#000" x="561.818" y="-288" transform="rotate(90,561.818,-288)">1200</text><path d="M 605.4545454545455 -300 L 605.4545454545455 -288"/><text style="font-size:12;font-style:italic;stroke:none;fill:#000" x="605.455" y="-288" transform="rotate(90,605.455,-288)">1400</text><path d="M 649.090909090909 -300 L 649.090909090909 -288"/><text style="font-size:12;font-style:italic;stroke:none;fill:#000" x="649.091" y="-288" transform="rotate(90,649.091,-288)">1600</text><path d="M 692.7272727272727 -300 L 692.7272727272727 -288"/><text style="font-size:12;font-style:italic;stroke:none;fill:#000" x="692.727" y="-288" transform="rotate(90,692.727,-288)">1800</text><path d="M 736.3636363636364 -300 L 736.3636363636364 -288"/><text style="font-size:12;font-style:italic;stroke:none;fill:#000" x="736.364" y="-288" transform="rotate(90,736.364,-288)">2000</text><path d="M 780.0 -300 L 780.0 -288"/><text style="font-size:12;font-style:italic;stroke:none;fill:#000" x="780" y="-288" transform="rotate(90,780,-288)">2200</text><text style="font-size:16;stroke:none;fill:#000" x="524.44" y="-220">Size</text><path d="M 300 -388.0 L 780 -388.0" style="stroke:#b3b3b3;stroke-width:.4;stroke-dasharray:1,1"/><path d="M 300 -476.0 L 780 -476.0" style="stroke:#b3b3b3;stroke-width:.4;stroke-dasharray:1,1"/><path d="M 300 -300 L 300 -520"/><path d="M 300 -300.0 L 288 -300.0"/><text style="font-size:12;font-style:italic;stroke:none;fill:#000" x="238" y="-294">0.00e+00</text><path d="M 300 -324.806144 L 288 -324.806144"/><text style="font-size:12;font-style:italic;stroke:none;fill:#000" x="238" y="-318.806">2.82e+04</text><path d="M 300 -349.612288 L 288 -349.612288"/><text style="font-size:12;font-style:italic;stroke:none;fill:#000" x="238" y="-343.612">5.64e+04</text><path d="M 300 -374.418432 L 288 -374.418432"/><text style="font-size:12;font-style:italic;stroke:none;fill:#000" x="238" y="-368.418">8.46e+04</text><path d="M 300 -399.224576 L 288 -399.224576"/><text style="font-size:12;font-style:italic;stroke:none;fill:#000" x="238" y="-393.225">1.13e+05</text><path d="M 300 -424.03072 L 288 -424.03072"/><text style="font-size:12;font-style:italic;stroke:none;fill:#000" x="238" y="-418.031">1.41e+05</text><path d="M 300 -448.836864 L 288 -448.836864"/><text style="font-size:12;font-style:italic;stroke:none;fill:#000" x="238" y="-442.837">1.69e+05</text><path d="M 300 -473.643008 L 288 -473.643008"/><text style="font-size:12;font-style:italic;stroke:none;fill:#000" x="238" y="-467.643">1.97e+05</text><path d="M 300 -498.44915199999997 L 288 -498.44915199999997"/><text style="font-size:12;font-style:italic;stroke:none;fill:#000" x="238" y="-492.449">2.26e+05</text><text style="font-size:16;stroke:none;fill:#000" x="200" y="-354.44" transform="rotate(-90,200,-354.44)">Memory (bytes)</text><g style="clip-path:url(#clip0)"><g style="clip-path:url(#clip1)"><path d="M 387.27272727272725 -378.97472 L 474.5454545454545 -384.60672 L 561.8181818181818 -390.23872 L 649.090909090909 -418.39872 L 736.3636363636364 -424.03072" style="stroke:navy;stroke-width:2"/></g><g style="clip-path:url(#clip2)"><path d="M 382.27272727272725 -373.97472 L 392.27272727272725 -383.97472" style="stroke-width:.7"/><path d="M 392.27272727272725 -373.97472 L 382.27272727272725 -383.97472" style="stroke-width:.7"/><path d="M 469.5454545454545 -379.60672 L 479.5454545454545 -389.60672" style="stroke-width:.7"/><path d="M 479.5454545454545 -379.60672 L 469.5454545454545 -389.60672" style="stroke-width:.7"/><path d="M 556.8181818181818 -385.23872 L 566.8181818181818 -395.23872" style="stroke-width:.7"/><path d="M 566.8181818181818 -385.23872 L 556.8181818181818 -395.23872" style="stroke-width:.7"/><path d="M 644.090909090909 -413.39872 L 654.090909090909 -423.39872" style="stroke-width:.7"/><path d="M 654.090909090909 -413.39872 L 644.090909090909 -423.39872" style="stroke-width:.7"/><path d="M 731.3636363636364 -419.03072 L 741.3636363636364 -429.03072" style="stroke-width:.7"/><path d="M 741.3636363636364 -419.03072 L 731.3636363636364 -429.03072" style="stroke-width:.7"/></g><g style="clip-path:url(#clip3)"><path d="M 387.27272727272725 -316.896 L 474.5454545454545 -333.79200000000003 L 561.8181818181818 -350.688 L 649.090909090909 -367.584 L 736.3636363636364 -384.48" style="stroke:#7e7e7e;stroke-width:.4;stroke-dasharray:1.5,1.5"/></g><g style="clip-path:url(#clip4)"><g style="fill:#000;clip-path:url(#clip5)"><path d="M 381.02272727272725 -311.896 L 381.02272727272725 -321.896 L 393.52272727272725 -321.896 L 393.52272727272725 -311.896 Z" style="stroke:none"/></g><g><path d="M 387.27272727272725 -311.896 L 381.02272727272725 -321.896 L 393.52272727272725 -321.896 Z"/><g style="fill:#000;clip-path:url(#clip6)"><path d="M 468.2954545454545 -328.79200000000003 L 468.2954545454545 -338.79200000000003 L 480.7954545454545 -338.79200000000003 L 480.7954545454545 -328.79200000000003 Z" style="stroke:none"/></g><g><path d="M 474.5454545454545 -328.79200000000003 L 468.2954545454545 -338.79200000000003 L 480.7954545454545 -338.79200000000003 Z"/><g style="fill:#000;clip-path:url(#clip7)"><path d="M 555.5681818181818 -345.688 L 555.5681818181818 -355.688 L 568.0681818181818 -355.688 L 568.0681818181818 -345.688 Z" style="stroke:none"/></g><g><path d="M 561.8181818181818 -345.688 L 555.5681818181818 -355.688 L 568.0681818181818 -355.688 Z"/><g style="fill:#000;clip-path:url(#clip8)"><path d="M 642.840909090909 -362.584 L 642.840909090909 -372.584 L 655.340909090909 -372.584 L 655.340909090909 -362.584 Z" style="stroke:none"/></g><g><path d="M 649.090909090909 -362.584 L 642.840909090909 -372.584 L 655.340909090909 -372.584 Z"/><g style="fill:#000;clip-path:url(#clip9)"><path d="M 730.1136363636364 -379.48 L 730.1136363636364 -389.48 L 742.6136363636364 -389.48 L 742.6136363636364 -379.48 Z" style="stroke:none"/></g><g><path d="M 736.3636363636364 -379.48 L 730.1136363636364 -389.48 L 742.6136363636364 -389.48 Z"/></g></g></g></g></g></g><g style="clip-path:url(#clip10)"><path d="M 387.27272727272725 -328.21632 L 474.5454545454545 -333.84832 L 561.8181818181818 -339.48032 L 649.090909090909 -345.11232 L 736.3636363636364 -350.74432" style="stroke:#7e7e7e;stroke-width:2"/></g><g style="clip-path:url(#clip11)"><g style="fill:#fff;clip-path:url(#clip12)"><path d="M 380.12987012987014 -321.0734628571429 L 380.12987012987014 -335.35917714285716 L 394.4155844155844 -335.35917714285716 L 394.4155844155844 -321.0734628571429 Z" style="stroke:none"/></g><g><path d="M 380.12987012987014 -328.21632 L 387.27272727272725 -335.35917714285716 L 394.4155844155844 -328.21632 L 387.27272727272725 -321.0734628571429 Z"/><g style="fill:#fff;clip-path:url(#clip13)"><path d="M 467.4025974025974 -326.70546285714283 L 467.4025974025974 -340.99117714285717 L 481.68831168831167 -340.99117714285717 L 481.68831168831167 -326.70546285714283 Z" style="stroke:none"/></g><g><path d="M 467.4025974025974 -333.84832 L 474.5454545454545 -340.99117714285717 L 481.68831168831167 -333.84832 L 474.5454545454545 -326.70546285714283 Z"/><g style="fill:#fff;clip-path:url(#clip14)"><path d="M 554.6753246753246 -332.33746285714284 L 554.6753246753246 -346.6231771428571 L 568.961038961039 -346.6231771428571 L 568.961038961039 -332.33746285714284 Z" style="stroke:none"/></g><g><path d="M 554.6753246753246 -339.48032 L 561.8181818181818 -346.6231771428571 L 568.961038961039 -339.48032 L 561.8181818181818 -332.33746285714284 Z"/><g style="fill:#fff;clip-path:url(#clip15)"><path d="M 641.9480519480519 -337.96946285714284 L 641.9480519480519 -352.2551771428571 L 656.2337662337662 -352.2551771428571 L 656.2337662337662 -337.96946285714284 Z" style="stroke:none"/></g><g><path d="M 641.9480519480519 -345.11232 L 649.090909090909 -352.2551771428571 L 656.2337662337662 -345.11232 L 649.090909090909 -337.96946285714284 Z"/><g style="fill:#fff;clip-path:url(#clip16)"><path d="M 729.2207792207791 -343.60146285714285 L 729.2207792207791 -357.8871771428571 L 743.5064935064936 -357.8871771428571 L 743.5064935064936 -343.60146285714285 Z" style="stroke:none"/></g><g><path d="M 729.2207792207791 -350.74432 L 736.3636363636364 -357.8871771428571 L 743.5064935064936 -350.74432 L 736.3636363636364 -343.60146285714285 Z"/></g></g></g></g></g></g></g><g style="fill:#fff;clip-path:url(#clip17)"><path d="M 290 -74 L 290 -200 L 687.072 -200 L 687.072 -74 Z" style="stroke:none"/></g><path d="M 300 -189.33333333333331 L 316 -189.33333333333331" style="stroke:navy;stroke-width:2"/><path d="M 303.0 -184.33333333333331 L 313.0 -194.33333333333331" style="stroke-width:.7"/><path d="M 313.0 -184.33333333333331 L 303.0 -194.33333333333331" style="stroke-width:.7"/><text style="font-size:16;stroke:none;fill:#000" x="316" y="-184">rb_tree_</text><text style="font-size:16;stroke:none;fill:#000" x="316" y="-168">mmap_</text><text style="font-size:16;stroke:none;fill:#000" x="316" y="-152">cc_hash_mask_exp_nea_lc_1div8_1div2_nsth_set</text><path d="M 300 -137.33333333333334 L 316 -137.33333333333334" style="stroke:#7e7e7e;stroke-width:.4;stroke-dasharray:1.5,1.5"/><g style="fill:#000;clip-path:url(#clip18)"><path d="M 301.75 -132.33333333333334 L 301.75 -142.33333333333334 L 314.25 -142.33333333333334 L 314.25 -132.33333333333334 Z" style="stroke:none"/></g><g><path d="M 308.0 -132.33333333333334 L 301.75 -142.33333333333334 L 314.25 -142.33333333333334 Z"/><text style="font-size:16;stroke:none;fill:#000" x="316" y="-132">n_mmap</text><path d="M 300 -117.33333333333334 L 316 -117.33333333333334" style="stroke:#7e7e7e;stroke-width:2"/><g style="fill:#fff;clip-path:url(#clip19)"><path d="M 300.85714285714283 -110.1904761904762 L 300.85714285714283 -124.47619047619048 L 315.14285714285717 -124.47619047619048 L 315.14285714285717 -110.1904761904762 Z" style="stroke:none"/></g><g><path d="M 300.85714285714283 -117.33333333333334 L 308.0 -124.47619047619048 L 315.14285714285717 -117.33333333333334 L 308.0 -110.1904761904762 Z"/><text style="font-size:16;stroke:none;fill:#000" x="316" y="-112">rb_tree_</text><text style="font-size:16;stroke:none;fill:#000" x="316" y="-96">mmap_</text><text style="font-size:16;stroke:none;fill:#000" x="316" y="-80">lu_mtf_set</text></g></g></g></svg>