<svg xmlns="http://www.w3.org/2000/svg" xmlns:xlink="http://www.w3.org/1999/xlink" width="568pt" height="240" viewBox="0 0 568 180"><g id="graph1" class="graph" transform="scale(1) rotate(0) translate(4, 176)"><title>G</title><polygon fill="#fff" stroke="#fff" points="-4 5 -4 -176 565 -176 565 5 -4 5"/><g id="node1" class="node"><title>Node1</title><polygon fill="#bfbfbf" stroke="#000" points="180 -76 180 -96 344 -96 344 -76 180 -76"/><text x="262" y="-83.9" font-family="FreeSans" font-size="9" text-anchor="middle">__gnu_pbds::priority_queue_tag</text></g><g id="node5" class="node"><title>Node3</title><a target="_top" xlink:href="a00187.html" xlink:title="Binary-heap (array-based)."><polygon fill="#fff" stroke="#000" points="392.5 -152 392.5 -172 547.5 -172 547.5 -152 392.5 -152"/><text x="470" y="-159.9" font-family="FreeSans" font-size="9" text-anchor="middle">__gnu_pbds::binary_heap_tag</text></a></g><g id="edge4" class="edge"><title>Node1-&gt;Node3</title><path fill="none" stroke="#191970" d="M288.374,-101.033C311.786,-113.814 347.263,-131.822 380,-143 390.277,-146.509 401.444,-149.494 412.304,-151.987"/><polygon fill="#191970" stroke="#191970" points="289.867 -97.859 279.422 -96.079 286.477 -103.984 289.867 -97.859"/></g><g id="node7" class="node"><title>Node4</title><a target="_top" xlink:href="a00188.html" xlink:title="Binomial-heap."><polygon fill="#fff" stroke="#000" points="387.5 -114 387.5 -134 552.5 -134 552.5 -114 387.5 -114"/><text x="470" y="-121.9" font-family="FreeSans" font-size="9" text-anchor="middle">__gnu_pbds::binomial_heap_tag</text></a></g><g id="edge6" class="edge"><title>Node1-&gt;Node4</title><path fill="none" stroke="#191970" d="M327.114,-97.8959C355.381,-103.06 388.126,-109.042 415.132,-113.976"/><polygon fill="#191970" stroke="#191970" points="327.388 -94.388 316.922 -96.034 326.13 -101.274 327.388 -94.388"/></g><g id="node9" class="node"><title>Node5</title><a target="_top" xlink:href="a00349.html" xlink:title="Pairing-heap."><polygon fill="#fff" stroke="#000" points="391 -76 391 -96 549 -96 549 -76 391 -76"/><text x="470" y="-83.9" font-family="FreeSans" font-size="9" text-anchor="middle">__gnu_pbds::pairing_heap_tag</text></a></g><g id="edge8" class="edge"><title>Node1-&gt;Node5</title><path fill="none" stroke="#191970" d="M354.347,-86C366.497,-86 378.861,-86 390.766,-86"/><polygon fill="#191970" stroke="#191970" points="354.207 -82.5 344.207 -86 354.207 -89.5 354.207 -82.5"/></g><g id="node11" class="node"><title>Node6</title><a target="_top" xlink:href="a00357.html" xlink:title="Redundant-counter binomial-heap."><polygon fill="#fff" stroke="#000" points="380.5 -38 380.5 -58 559.5 -58 559.5 -38 380.5 -38"/><text x="470" y="-45.9" font-family="FreeSans" font-size="9" text-anchor="middle">__gnu_pbds::rc_binomial_heap_tag</text></a></g><g id="edge10" class="edge"><title>Node1-&gt;Node6</title><path fill="none" stroke="#191970" d="M327.114,-74.1041C355.381,-68.9399 388.126,-62.9578 415.132,-58.024"/><polygon fill="#191970" stroke="#191970" points="326.13 -70.726 316.922 -75.966 327.388 -77.612 326.13 -70.726"/></g><g id="node13" class="node"><title>Node7</title><a target="_top" xlink:href="a00373.html" xlink:title="Thin heap."><polygon fill="#fff" stroke="#000" points="398 0 398 -20 542 -20 542 0 398 0"/><text x="470" y="-7.9" font-family="FreeSans" font-size="9" text-anchor="middle">__gnu_pbds::thin_heap_tag</text></a></g><g id="edge12" class="edge"><title>Node1-&gt;Node7</title><path fill="none" stroke="#191970" d="M288.374,-70.967C311.786,-58.1857 347.263,-40.1778 380,-29 390.277,-25.4912 401.444,-22.5058 412.304,-20.0134"/><polygon fill="#191970" stroke="#191970" points="286.477 -68.016 279.422 -75.921 289.867 -74.141 286.477 -68.016"/></g><g id="node2" class="node"><title>Node2</title><a target="_top" xlink:href="a00193.html" xlink:title="Base data structure tag."><polygon fill="#fff" stroke="#000" points=".5 -76 .5 -96 143.5 -96 143.5 -76 .5 -76"/><text x="72" y="-83.9" font-family="FreeSans" font-size="9" text-anchor="middle">__gnu_pbds::container_tag</text></a></g><g id="edge2" class="edge"><title>Node2-&gt;Node1</title><path fill="none" stroke="#191970" d="M153.696,-86C162.404,-86 171.265,-86 179.978,-86"/><polygon fill="#191970" stroke="#191970" points="153.56 -82.5 143.56 -86 153.56 -89.5 153.56 -82.5"/></g></g></svg>