<svg xmlns="http://www.w3.org/2000/svg" xmlns:xlink="http://www.w3.org/1999/xlink" width="430pt" height="272" viewBox="0 0 430 204"><g id="graph1" class="graph" transform="scale(1) rotate(0) translate(4, 200)"><title>G</title><polygon fill="#fff" stroke="#fff" points="-4 5 -4 -200 427 -200 427 5 -4 5"/><g id="node1" class="node"><title>Node1</title><polygon fill="#bfbfbf" stroke="#000" points="136 -59 136 -79 286 -79 286 -59 136 -59"/><text x="211" y="-66.9" font-family="FreeSans" font-size="9" text-anchor="middle">__gnu_pbds::container_error</text></g><g id="node7" class="node"><title>Node4</title><a target="_top" xlink:href="a00339.html" xlink:title="An entry cannot be inserted into a container object for logical reasons (not, e.g., if memory is unabvailable, in which case the allocator_type's exception will be thrown)."><polygon fill="#fff" stroke="#000" points="0 -1 0 -21 132 -21 132 -1 0 -1"/><text x="66" y="-8.9" font-family="FreeSans" font-size="9" text-anchor="middle">__gnu_pbds::insert_error</text></a></g><g id="edge6" class="edge"><title>Node1-&gt;Node4</title><path fill="none" stroke="#191970" d="M176.225,-55.0898C150.121,-44.6486 114.974,-30.5898 91.4542,-21.1817"/><polygon fill="#191970" stroke="#191970" points="175.158 -58.433 185.743 -58.897 177.758 -51.934 175.158 -58.433"/></g><g id="node9" class="node"><title>Node5</title><a target="_top" xlink:href="a00340.html" xlink:title="A join cannot be performed logical reasons (i.e., the ranges of the two container objects being joine..."><polygon fill="#fff" stroke="#000" points="150 -1 150 -21 272 -21 272 -1 150 -1"/><text x="211" y="-8.9" font-family="FreeSans" font-size="9" text-anchor="middle">__gnu_pbds::join_error</text></a></g><g id="edge8" class="edge"><title>Node1-&gt;Node5</title><path fill="none" stroke="#191970" d="M211,-48.8902C211,-39.6201 211,-29.0083 211,-21.3776"/><polygon fill="#191970" stroke="#191970" points="207.5 -48.897 211 -58.897 214.5 -48.897 207.5 -48.897"/></g><g id="node11" class="node"><title>Node6</title><a target="_top" xlink:href="a00358.html" xlink:title="A container cannot be resized."><polygon fill="#fff" stroke="#000" points="290 -1 290 -21 422 -21 422 -1 290 -1"/><text x="356" y="-8.9" font-family="FreeSans" font-size="9" text-anchor="middle">__gnu_pbds::resize_error</text></a></g><g id="edge10" class="edge"><title>Node1-&gt;Node6</title><path fill="none" stroke="#191970" d="M245.775,-55.0898C271.879,-44.6486 307.026,-30.5898 330.546,-21.1817"/><polygon fill="#191970" stroke="#191970" points="244.242 -51.934 236.257 -58.897 246.842 -58.433 244.242 -51.934"/></g><g id="node2" class="node"><title>Node2</title><a target="_top" xlink:href="a00771.html" xlink:title="One of two subclasses of exception."><polygon fill="#fff" stroke="#000" points="167.5 -117 167.5 -137 254.5 -137 254.5 -117 167.5 -117"/><text x="211" y="-124.9" font-family="FreeSans" font-size="9" text-anchor="middle">std::logic_error</text></a></g><g id="edge2" class="edge"><title>Node2-&gt;Node1</title><path fill="none" stroke="#191970" d="M211,-106.89C211,-97.6201 211,-87.0083 211,-79.3776"/><polygon fill="#191970" stroke="#191970" points="207.5 -106.897 211 -116.897 214.5 -106.897 207.5 -106.897"/></g><g id="node4" class="node"><title>Node3</title><a target="_top" xlink:href="a00647.html" xlink:title="Base class for all library exceptions."><polygon fill="#fff" stroke="#000" points="169.5 -175 169.5 -195 252.5 -195 252.5 -175 169.5 -175"/><text x="211" y="-182.9" font-family="FreeSans" font-size="9" text-anchor="middle">std::exception</text></a></g><g id="edge4" class="edge"><title>Node3-&gt;Node2</title><path fill="none" stroke="#191970" d="M211,-164.89C211,-155.62 211,-145.008 211,-137.378"/><polygon fill="#191970" stroke="#191970" points="207.5 -164.897 211 -174.897 214.5 -164.897 207.5 -164.897"/></g></g></svg>