<svg xmlns="http://www.w3.org/2000/svg" xmlns:xlink="http://www.w3.org/1999/xlink" width="224pt" height="146pt" viewBox="0 0 224 146"><g id="graph1" class="graph" transform="scale(1) rotate(0) translate(4, 142)"><title>G</title><polygon fill="#fff" stroke="#fff" points="-4 5 -4 -142 221 -142 221 5 -4 5"/><g id="node1" class="node"><title>Node1</title><polygon fill="#bfbfbf" stroke="#000" points="1 -117 1 -137 215 -137 215 -117 1 -117"/><text x="108" y="-124.9" font-family="FreeSans" font-size="9" text-anchor="middle">__gnu_pbds::basic_invalidation_guarantee</text></g><g id="node3" class="node"><title>Node2</title><a target="_top" xlink:href="a00351.html" xlink:title="__gnu_pbds::point_invalidation_guarantee"><polygon fill="#fff" stroke="#000" points="1.5 -59 1.5 -79 214.5 -79 214.5 -59 1.5 -59"/><text x="108" y="-66.9" font-family="FreeSans" font-size="9" text-anchor="middle">__gnu_pbds::point_invalidation_guarantee</text></a></g><g id="edge2" class="edge"><title>Node1-&gt;Node2</title><path fill="none" stroke="#191970" d="M108,-106.89C108,-97.6201 108,-87.0083 108,-79.3776"/><polygon fill="#191970" stroke="#191970" points="104.5 -106.897 108 -116.897 111.5 -106.897 104.5 -106.897"/></g><g id="node5" class="node"><title>Node3</title><a target="_top" xlink:href="a00355.html" xlink:title="__gnu_pbds::range_invalidation_guarantee"><polygon fill="#fff" stroke="#000" points="-.5 -1 -.5 -21 216.5 -21 216.5 -1 -.5 -1"/><text x="108" y="-8.9" font-family="FreeSans" font-size="9" text-anchor="middle">__gnu_pbds::range_invalidation_guarantee</text></a></g><g id="edge4" class="edge"><title>Node2-&gt;Node3</title><path fill="none" stroke="#191970" d="M108,-48.8902C108,-39.6201 108,-29.0083 108,-21.3776"/><polygon fill="#191970" stroke="#191970" points="104.5 -48.897 108 -58.897 111.5 -48.897 104.5 -48.897"/></g></g></svg>