<svg xmlns="http://www.w3.org/2000/svg" xmlns:xlink="http://www.w3.org/1999/xlink" width="1232" height="436pt" viewBox="0 0 924 436"><g id="graph1" class="graph" transform="scale(1) rotate(0) translate(4, 432)"><title>G</title><polygon fill="#fff" stroke="#fff" points="-4 5 -4 -432 921 -432 921 5 -4 5"/><g id="node1" class="node"><title>Node1</title><polygon fill="#bfbfbf" stroke="#000" points=".5 -114 .5 -134 143.5 -134 143.5 -114 .5 -114"/><text x="72" y="-121.9" font-family="FreeSans" font-size="9" text-anchor="middle">__gnu_pbds::container_tag</text></g><g id="node3" class="node"><title>Node2</title><a target="_top" xlink:href="a00181.html" xlink:title="Basic associative-container."><polygon fill="#fff" stroke="#000" points="187 -247 187 -267 337 -267 337 -247 187 -247"/><text x="262" y="-254.9" font-family="FreeSans" font-size="9" text-anchor="middle">__gnu_pbds::associative_tag</text></a></g><g id="edge2" class="edge"><title>Node1-&gt;Node2</title><path fill="none" stroke="#191970" d="M94.8477,-139.993C134.478,-167.735 214.859,-224.001 247.617,-246.932"/><polygon fill="#191970" stroke="#191970" points="96.793 -137.083 86.594 -134.215 92.779 -142.817 96.793 -137.083"/></g><g id="node27" class="node"><title>Node14</title><a target="_top" xlink:href="a00353.html" xlink:title="Basic priority-queue."><polygon fill="#fff" stroke="#000" points="180 -114 180 -134 344 -134 344 -114 180 -114"/><text x="262" y="-121.9" font-family="FreeSans" font-size="9" text-anchor="middle">__gnu_pbds::priority_queue_tag</text></a></g><g id="edge26" class="edge"><title>Node1-&gt;Node14</title><path fill="none" stroke="#191970" d="M153.696,-124C162.404,-124 171.265,-124 179.978,-124"/><polygon fill="#191970" stroke="#191970" points="153.56 -120.5 143.56 -124 153.56 -127.5 153.56 -120.5"/></g><g id="node39" class="node"><title>Node20</title><a target="_top" xlink:href="a00370.html" xlink:title="Basic sequence."><polygon fill="#fff" stroke="#000" points="190 -38 190 -58 334 -58 334 -38 190 -38"/><text x="262" y="-45.9" font-family="FreeSans" font-size="9" text-anchor="middle">__gnu_pbds::sequence_tag</text></a></g><g id="edge38" class="edge"><title>Node1-&gt;Node20</title><path fill="none" stroke="#191970" d="M106.781,-110.088C144.452,-95.0192 203.618,-71.3528 236.968,-58.0129"/><polygon fill="#191970" stroke="#191970" points="105.215 -106.944 97.231 -113.908 107.815 -113.443 105.215 -106.944"/></g><g id="node5" class="node"><title>Node3</title><a target="_top" xlink:href="a00183.html" xlink:title="Basic branch structure."><polygon fill="#fff" stroke="#000" points="390 -304 390 -324 550 -324 550 -304 390 -304"/><text x="470" y="-311.9" font-family="FreeSans" font-size="9" text-anchor="middle">__gnu_pbds::basic_branch_tag</text></a></g><g id="edge4" class="edge"><title>Node2-&gt;Node3</title><path fill="none" stroke="#191970" d="M300.076,-270.369C323.049,-278.157 353.003,-287.824 380,-295 392.192,-298.241 405.431,-301.291 417.908,-303.959"/><polygon fill="#191970" stroke="#191970" points="300.963 -266.973 290.368 -267.049 298.698 -273.596 300.963 -266.973"/></g><g id="node19" class="node"><title>Node10</title><a target="_top" xlink:href="a00185.html" xlink:title="Basic hash structure."><polygon fill="#fff" stroke="#000" points="395 -266 395 -286 545 -286 545 -266 395 -266"/><text x="470" y="-273.9" font-family="FreeSans" font-size="9" text-anchor="middle">__gnu_pbds::basic_hash_tag</text></a></g><g id="edge18" class="edge"><title>Node2-&gt;Node10</title><path fill="none" stroke="#191970" d="M347.308,-264.793C363.005,-266.226 379.29,-267.714 394.668,-269.119"/><polygon fill="#191970" stroke="#191970" points="347.37 -261.284 337.093 -263.859 346.733 -268.255 347.37 -261.284"/></g><g id="node25" class="node"><title>Node13</title><a target="_top" xlink:href="a00343.html" xlink:title="List-update."><polygon fill="#fff" stroke="#000" points="395.5 -228 395.5 -248 544.5 -248 544.5 -228 395.5 -228"/><text x="470" y="-235.9" font-family="FreeSans" font-size="9" text-anchor="middle">__gnu_pbds::list_update_tag</text></a></g><g id="edge24" class="edge"><title>Node2-&gt;Node13</title><path fill="none" stroke="#191970" d="M347.436,-249.196C363.332,-247.744 379.826,-246.237 395.366,-244.818"/><polygon fill="#191970" stroke="#191970" points="346.733 -245.745 337.093 -250.141 347.37 -252.716 346.733 -245.745"/></g><g id="node7" class="node"><title>Node4</title><a target="_top" xlink:href="a00376.html" xlink:title="Basic tree structure."><polygon fill="#fff" stroke="#000" points="606.5 -361 606.5 -381 723.5 -381 723.5 -361 606.5 -361"/><text x="665" y="-368.9" font-family="FreeSans" font-size="9" text-anchor="middle">__gnu_pbds::tree_tag</text></a></g><g id="edge6" class="edge"><title>Node3-&gt;Node4</title><path fill="none" stroke="#191970" d="M514.437,-326.989C549.695,-337.296 598.267,-351.493 630.603,-360.946"/><polygon fill="#191970" stroke="#191970" points="514.994 -323.506 504.413 -324.059 513.03 -330.224 514.994 -323.506"/></g><g id="node15" class="node"><title>Node8</title><a target="_top" xlink:href="a00381.html" xlink:title="Basic trie structure."><polygon fill="#fff" stroke="#000" points="608.5 -304 608.5 -324 721.5 -324 721.5 -304 608.5 -304"/><text x="665" y="-311.9" font-family="FreeSans" font-size="9" text-anchor="middle">__gnu_pbds::trie_tag</text></a></g><g id="edge14" class="edge"><title>Node3-&gt;Node8</title><path fill="none" stroke="#191970" d="M560.301,-314C576.675,-314 593.321,-314 608.378,-314"/><polygon fill="#191970" stroke="#191970" points="560.158 -310.5 550.158 -314 560.158 -317.5 560.158 -310.5"/></g><g id="node9" class="node"><title>Node5</title><a target="_top" xlink:href="a00348.html" xlink:title="Ordered-vector tree."><polygon fill="#fff" stroke="#000" points="777 -408 777 -428 909 -428 909 -408 777 -408"/><text x="843" y="-415.9" font-family="FreeSans" font-size="9" text-anchor="middle">__gnu_pbds::ov_tree_tag</text></a></g><g id="edge8" class="edge"><title>Node4-&gt;Node5</title><path fill="none" stroke="#191970" d="M712.14,-383.635C730.228,-388.466 751.067,-394.012 770,-399 781.144,-401.936 793.253,-405.099 804.346,-407.985"/><polygon fill="#191970" stroke="#191970" points="712.969 -380.234 702.404 -381.033 711.161 -386.996 712.969 -380.234"/></g><g id="node11" class="node"><title>Node6</title><a target="_top" xlink:href="a00356.html" xlink:title="Red-black tree."><polygon fill="#fff" stroke="#000" points="777.5 -370 777.5 -390 908.5 -390 908.5 -370 777.5 -370"/><text x="843" y="-377.9" font-family="FreeSans" font-size="9" text-anchor="middle">__gnu_pbds::rb_tree_tag</text></a></g><g id="edge10" class="edge"><title>Node4-&gt;Node6</title><path fill="none" stroke="#191970" d="M733.976,-374.488C748.188,-375.206 763.117,-375.961 777.212,-376.674"/><polygon fill="#191970" stroke="#191970" points="733.941 -370.981 723.777 -373.972 733.588 -377.972 733.941 -370.981"/></g><g id="node13" class="node"><title>Node7</title><a target="_top" xlink:href="a00371.html" xlink:title="Splay tree."><polygon fill="#fff" stroke="#000" points="770 -332 770 -352 916 -352 916 -332 770 -332"/><text x="843" y="-339.9" font-family="FreeSans" font-size="9" text-anchor="middle">__gnu_pbds::splay_tree_tag</text></a></g><g id="edge12" class="edge"><title>Node4-&gt;Node7</title><path fill="none" stroke="#191970" d="M733.937,-359.769C749.623,-357.213 766.186,-354.515 781.537,-352.014"/><polygon fill="#191970" stroke="#191970" points="733.084 -356.361 723.777 -361.424 734.21 -363.27 733.084 -356.361"/></g><g id="node17" class="node"><title>Node9</title><a target="_top" xlink:href="a00350.html" xlink:title="PATRICIA trie."><polygon fill="#fff" stroke="#000" points="776 -294 776 -314 910 -314 910 -294 776 -294"/><text x="843" y="-301.9" font-family="FreeSans" font-size="9" text-anchor="middle">__gnu_pbds::pat_trie_tag</text></a></g><g id="edge16" class="edge"><title>Node8-&gt;Node9</title><path fill="none" stroke="#191970" d="M732.074,-310.232C746.397,-309.427 761.529,-308.577 775.855,-307.772"/><polygon fill="#191970" stroke="#191970" points="731.598 -306.753 721.81 -310.808 731.99 -313.742 731.598 -306.753"/></g><g id="node21" class="node"><title>Node11</title><a target="_top" xlink:href="a00191.html" xlink:title="Collision-chaining hash."><polygon fill="#fff" stroke="#000" points="597 -266 597 -286 733 -286 733 -266 597 -266"/><text x="665" y="-273.9" font-family="FreeSans" font-size="9" text-anchor="middle">__gnu_pbds::cc_hash_tag</text></a></g><g id="edge20" class="edge"><title>Node10-&gt;Node11</title><path fill="none" stroke="#191970" d="M555.203,-276C569.165,-276 583.469,-276 596.944,-276"/><polygon fill="#191970" stroke="#191970" points="555.113 -272.5 545.113 -276 555.113 -279.5 555.113 -272.5"/></g><g id="node23" class="node"><title>Node12</title><a target="_top" xlink:href="a00334.html" xlink:title="General-probing hash."><polygon fill="#fff" stroke="#000" points="596.5 -228 596.5 -248 733.5 -248 733.5 -228 596.5 -228"/><text x="665" y="-235.9" font-family="FreeSans" font-size="9" text-anchor="middle">__gnu_pbds::gp_hash_tag</text></a></g><g id="edge22" class="edge"><title>Node10-&gt;Node12</title><path fill="none" stroke="#191970" d="M531.394,-264.036C557.814,-258.887 588.354,-252.936 613.561,-248.024"/><polygon fill="#191970" stroke="#191970" points="530.635 -260.618 521.489 -265.966 531.974 -267.489 530.635 -260.618"/></g><g id="node29" class="node"><title>Node15</title><a target="_top" xlink:href="a00187.html" xlink:title="Binary-heap (array-based)."><polygon fill="#fff" stroke="#000" points="392.5 -190 392.5 -210 547.5 -210 547.5 -190 392.5 -190"/><text x="470" y="-197.9" font-family="FreeSans" font-size="9" text-anchor="middle">__gnu_pbds::binary_heap_tag</text></a></g><g id="edge28" class="edge"><title>Node14-&gt;Node15</title><path fill="none" stroke="#191970" d="M288.374,-139.033C311.786,-151.814 347.263,-169.822 380,-181 390.277,-184.509 401.444,-187.494 412.304,-189.987"/><polygon fill="#191970" stroke="#191970" points="289.867 -135.859 279.422 -134.079 286.477 -141.984 289.867 -135.859"/></g><g id="node31" class="node"><title>Node16</title><a target="_top" xlink:href="a00188.html" xlink:title="Binomial-heap."><polygon fill="#fff" stroke="#000" points="387.5 -152 387.5 -172 552.5 -172 552.5 -152 387.5 -152"/><text x="470" y="-159.9" font-family="FreeSans" font-size="9" text-anchor="middle">__gnu_pbds::binomial_heap_tag</text></a></g><g id="edge30" class="edge"><title>Node14-&gt;Node16</title><path fill="none" stroke="#191970" d="M327.114,-135.896C355.381,-141.06 388.126,-147.042 415.132,-151.976"/><polygon fill="#191970" stroke="#191970" points="327.388 -132.388 316.922 -134.034 326.13 -139.274 327.388 -132.388"/></g><g id="node33" class="node"><title>Node17</title><a target="_top" xlink:href="a00349.html" xlink:title="Pairing-heap."><polygon fill="#fff" stroke="#000" points="391 -114 391 -134 549 -134 549 -114 391 -114"/><text x="470" y="-121.9" font-family="FreeSans" font-size="9" text-anchor="middle">__gnu_pbds::pairing_heap_tag</text></a></g><g id="edge32" class="edge"><title>Node14-&gt;Node17</title><path fill="none" stroke="#191970" d="M354.347,-124C366.497,-124 378.861,-124 390.766,-124"/><polygon fill="#191970" stroke="#191970" points="354.207 -120.5 344.207 -124 354.207 -127.5 354.207 -120.5"/></g><g id="node35" class="node"><title>Node18</title><a target="_top" xlink:href="a00357.html" xlink:title="Redundant-counter binomial-heap."><polygon fill="#fff" stroke="#000" points="380.5 -76 380.5 -96 559.5 -96 559.5 -76 380.5 -76"/><text x="470" y="-83.9" font-family="FreeSans" font-size="9" text-anchor="middle">__gnu_pbds::rc_binomial_heap_tag</text></a></g><g id="edge34" class="edge"><title>Node14-&gt;Node18</title><path fill="none" stroke="#191970" d="M327.114,-112.104C355.381,-106.94 388.126,-100.958 415.132,-96.024"/><polygon fill="#191970" stroke="#191970" points="326.13 -108.726 316.922 -113.966 327.388 -115.612 326.13 -108.726"/></g><g id="node37" class="node"><title>Node19</title><a target="_top" xlink:href="a00373.html" xlink:title="Thin heap."><polygon fill="#fff" stroke="#000" points="398 -38 398 -58 542 -58 542 -38 398 -38"/><text x="470" y="-45.9" font-family="FreeSans" font-size="9" text-anchor="middle">__gnu_pbds::thin_heap_tag</text></a></g><g id="edge36" class="edge"><title>Node14-&gt;Node19</title><path fill="none" stroke="#191970" d="M288.374,-108.967C311.786,-96.1857 347.263,-78.1778 380,-67 390.277,-63.4912 401.444,-60.5058 412.304,-58.0134"/><polygon fill="#191970" stroke="#191970" points="286.477 -106.016 279.422 -113.921 289.867 -112.141 286.477 -106.016"/></g><g id="node41" class="node"><title>Node21</title><a target="_top" xlink:href="a00372.html" xlink:title="Basic string container, inclusive of strings, ropes, etc."><polygon fill="#fff" stroke="#000" points="407.5 0 407.5 -20 532.5 -20 532.5 0 407.5 0"/><text x="470" y="-7.9" font-family="FreeSans" font-size="9" text-anchor="middle">__gnu_pbds::string_tag</text></a></g><g id="edge40" class="edge"><title>Node20-&gt;Node21</title><path fill="none" stroke="#191970" d="M327.114,-36.1041C355.381,-30.9399 388.126,-24.9578 415.132,-20.024"/><polygon fill="#191970" stroke="#191970" points="326.13 -32.726 316.922 -37.966 327.388 -39.612 326.13 -32.726"/></g></g></svg>